<svg width="40" height="40" viewBox="0 0 40 40" fill="none" xmlns="http://www.w3.org/2000/svg">
<g filter="url(#filter0_d_12_139)">
<rect x="4" y="2" width="32" height="32" rx="10" fill="#FF8484"/>
</g>
<g clip-path="url(#clip0_12_139)">
<path d="M22.207 15.7968C22 15.7968 21.8323 15.9646 21.8323 16.1715V23.2535C21.8323 23.4603 22 23.6282 22.207 23.6282C22.4139 23.6282 22.5817 23.4603 22.5817 23.2535V16.1715C22.5817 15.9646 22.4139 15.7968 22.207 15.7968Z" fill="white"/>
<path d="M17.7855 15.7968C17.5785 15.7968 17.4108 15.9646 17.4108 16.1715V23.2535C17.4108 23.4603 17.5785 23.6282 17.7855 23.6282C17.9924 23.6282 18.1602 23.4603 18.1602 23.2535V16.1715C18.1602 15.9646 17.9924 15.7968 17.7855 15.7968Z" fill="white"/>
<path d="M14.563 14.7633V23.9953C14.563 24.5409 14.7631 25.0534 15.1126 25.421C15.4605 25.7898 15.9447 25.9991 16.4515 25.9999H23.541C24.0479 25.9991 24.5321 25.7898 24.8799 25.421C25.2294 25.0534 25.4295 24.5409 25.4295 23.9953V14.7633C26.1243 14.5789 26.5745 13.9076 26.4816 13.1947C26.3885 12.4818 25.7812 11.9486 25.0622 11.9485H23.1438V11.4801C23.146 11.0862 22.9902 10.708 22.7114 10.4297C22.4326 10.1516 22.0538 9.99677 21.6599 9.99999H18.3326C17.9387 9.99677 17.5599 10.1516 17.2811 10.4297C17.0023 10.708 16.8465 11.0862 16.8487 11.4801V11.9485H14.9302C14.2113 11.9486 13.604 12.4818 13.5109 13.1947C13.418 13.9076 13.8682 14.5789 14.563 14.7633ZM23.541 25.2505H16.4515C15.8108 25.2505 15.3124 24.7002 15.3124 23.9953V14.7962H24.6801V23.9953C24.6801 24.7002 24.1817 25.2505 23.541 25.2505ZM17.5981 11.4801C17.5956 11.285 17.6723 11.0972 17.8108 10.9594C17.9491 10.8217 18.1374 10.746 18.3326 10.7494H21.6599C21.8551 10.746 22.0434 10.8217 22.1817 10.9594C22.3202 11.097 22.3969 11.285 22.3944 11.4801V11.9485H17.5981V11.4801ZM14.9302 12.6979H25.0622C25.4348 12.6979 25.7367 12.9998 25.7367 13.3723C25.7367 13.7449 25.4348 14.0468 25.0622 14.0468H14.9302C14.5577 14.0468 14.2558 13.7449 14.2558 13.3723C14.2558 12.9998 14.5577 12.6979 14.9302 12.6979Z" fill="white"/>
<path d="M19.9962 15.7968C19.7892 15.7968 19.6215 15.9646 19.6215 16.1715V23.2535C19.6215 23.4603 19.7892 23.6282 19.9962 23.6282C20.2031 23.6282 20.3709 23.4603 20.3709 23.2535V16.1715C20.3709 15.9646 20.2031 15.7968 19.9962 15.7968Z" fill="white"/>
</g>
<defs>
<filter id="filter0_d_12_139" x="0" y="0" width="40" height="40" filterUnits="userSpaceOnUse" color-interpolation-filters="sRGB">
<feFlood flood-opacity="0" result="BackgroundImageFix"/>
<feColorMatrix in="SourceAlpha" type="matrix" values="0 0 0 0 0 0 0 0 0 0 0 0 0 0 0 0 0 0 127 0" result="hardAlpha"/>
<feOffset dy="2"/>
<feGaussianBlur stdDeviation="2"/>
<feComposite in2="hardAlpha" operator="out"/>
<feColorMatrix type="matrix" values="0 0 0 0 0 0 0 0 0 0 0 0 0 0 0 0 0 0 0.1 0"/>
<feBlend mode="normal" in2="BackgroundImageFix" result="effect1_dropShadow_12_139"/>
<feBlend mode="normal" in="SourceGraphic" in2="effect1_dropShadow_12_139" result="shape"/>
</filter>
<clipPath id="clip0_12_139">
<rect width="16" height="16" fill="white" transform="translate(12 10)"/>
</clipPath>
</defs>
</svg>
